<?xml version="1.0" encoding="UTF-8" standalone="no"?>
<!DOCTYPE svg PUBLIC "-//W3C//DTD SVG 1.1//EN" "http://www.w3.org/Graphics/SVG/1.1/DTD/svg11.dtd">
<svg width="100%" height="100%" viewBox="0 0 4178 1231" version="1.1" xmlns="http://www.w3.org/2000/svg" xmlns:xlink="http://www.w3.org/1999/xlink" xml:space="preserve" xmlns:serif="http://www.serif.com/" style="fill-rule:evenodd;clip-rule:evenodd;stroke-linejoin:round;stroke-miterlimit:2;">
    <g transform="matrix(1,0,0,1,-2771.76,-4027.53)">
        <g transform="matrix(1,0,0,1,2208.16,3135.21)">
            <g transform="matrix(1.02299,0,0,0.967822,-2367.91,-3003.83)">
                <rect x="6279.03" y="4083" width="670.136" height="555.632" style="fill:rgb(219,60,60);"/>
            </g>
            <g transform="matrix(1.52931,0,0,1.52931,-1681.39,-5246.03)">
                <circle cx="3192.53" cy="4413.39" r="363.322" style="fill:rgb(219,60,60);"/>
            </g>
            <g transform="matrix(1,0,0,1,-2208.16,-3135.21)">
                <path d="M3193.81,4611.6C3193.81,4611.6 3238.38,4625.09 3255.13,4630.76C3425.75,4688.55 3533.02,4800.84 3533.02,4969.48C3533.02,5138.11 3355.09,5204.25 3186.45,5203.51C2946.69,5202.46 2783.72,5026.59 2783.72,5026.59L3193.81,4611.6ZM3193.81,4611.6C3193.81,4611.6 2888.26,4501.72 2888.26,4333.08C2888.26,4164.44 3024.13,4081.64 3192.76,4083C3453.66,4085.1 3543.48,4227.51 3543.48,4227.51L3193.81,4611.6Z" style="fill:rgb(219,60,60);"/>
            </g>
            <g transform="matrix(0.932008,0,0,1.00869,-1798.7,-3193.79)">
                <path d="M4071.03,4078.02L4568.95,5253.99L3573.11,5253.99L4071.03,4078.02Z" style="fill:rgb(219,60,60);"/>
            </g>
            <g transform="matrix(1709.25,0,0,1709.25,503.776,2105.88)">
                <path d="M0.283,0.01C0.231,0.011 0.186,0.002 0.149,-0.016C0.112,-0.034 0.076,-0.06 0.041,-0.095C0.04,-0.096 0.038,-0.098 0.037,-0.101C0.036,-0.103 0.035,-0.106 0.035,-0.11C0.035,-0.115 0.037,-0.121 0.042,-0.126C0.047,-0.131 0.052,-0.133 0.057,-0.133C0.063,-0.133 0.069,-0.13 0.074,-0.124C0.101,-0.093 0.132,-0.07 0.168,-0.054C0.203,-0.038 0.24,-0.03 0.279,-0.03C0.313,-0.03 0.343,-0.035 0.37,-0.047C0.397,-0.058 0.418,-0.073 0.433,-0.094C0.448,-0.114 0.456,-0.138 0.456,-0.165C0.455,-0.199 0.446,-0.226 0.428,-0.247C0.41,-0.268 0.387,-0.285 0.359,-0.298C0.33,-0.311 0.3,-0.324 0.269,-0.335C0.244,-0.344 0.22,-0.354 0.196,-0.364C0.172,-0.374 0.15,-0.386 0.131,-0.401C0.112,-0.415 0.096,-0.433 0.085,-0.455C0.074,-0.476 0.068,-0.503 0.068,-0.535C0.068,-0.568 0.077,-0.597 0.095,-0.624C0.112,-0.65 0.138,-0.671 0.171,-0.687C0.203,-0.702 0.243,-0.71 0.288,-0.71C0.326,-0.71 0.363,-0.703 0.399,-0.69C0.435,-0.676 0.463,-0.655 0.484,-0.628C0.491,-0.619 0.494,-0.612 0.494,-0.607C0.494,-0.602 0.492,-0.598 0.487,-0.593C0.482,-0.588 0.476,-0.586 0.47,-0.586C0.465,-0.586 0.46,-0.588 0.457,-0.592C0.445,-0.608 0.431,-0.622 0.413,-0.633C0.397,-0.645 0.377,-0.654 0.356,-0.661C0.335,-0.667 0.312,-0.67 0.288,-0.67C0.255,-0.67 0.226,-0.665 0.199,-0.654C0.172,-0.643 0.151,-0.628 0.135,-0.609C0.119,-0.589 0.111,-0.565 0.111,-0.536C0.111,-0.505 0.12,-0.48 0.138,-0.461C0.155,-0.441 0.178,-0.425 0.205,-0.411C0.232,-0.399 0.26,-0.387 0.289,-0.376C0.314,-0.367 0.34,-0.358 0.365,-0.347C0.39,-0.337 0.412,-0.324 0.433,-0.309C0.453,-0.294 0.469,-0.274 0.481,-0.251C0.493,-0.228 0.499,-0.198 0.499,-0.163C0.499,-0.132 0.49,-0.104 0.472,-0.078C0.455,-0.052 0.43,-0.031 0.398,-0.015C0.366,0.001 0.328,0.009 0.283,0.01Z" style="fill-rule:nonzero;"/>
            </g>
            <g transform="matrix(1709.25,0,0,1709.25,1443.86,2105.88)">
                <path d="M0.327,-0.649L0.074,-0.013C0.073,-0.009 0.07,-0.006 0.067,-0.004C0.064,-0.001 0.06,-0 0.056,-0C0.049,-0 0.044,-0.002 0.041,-0.005C0.038,-0.008 0.036,-0.012 0.035,-0.017C0.034,-0.02 0.035,-0.023 0.036,-0.027L0.305,-0.689C0.307,-0.694 0.31,-0.698 0.313,-0.7C0.316,-0.701 0.319,-0.702 0.324,-0.702C0.329,-0.702 0.334,-0.701 0.337,-0.699C0.34,-0.696 0.343,-0.693 0.344,-0.689L0.613,-0.027C0.614,-0.025 0.614,-0.022 0.614,-0.019C0.614,-0.013 0.612,-0.008 0.608,-0.005C0.604,-0.002 0.599,-0 0.593,-0C0.588,-0 0.584,-0.001 0.581,-0.004C0.577,-0.006 0.574,-0.009 0.573,-0.013L0.312,-0.657L0.327,-0.649Z" style="fill-rule:nonzero;"/>
            </g>
            <g transform="matrix(1709.25,0,0,1709.25,2544.62,2105.88)">
                <path d="M0.718,-0.35C0.718,-0.297 0.71,-0.248 0.694,-0.204C0.677,-0.16 0.654,-0.122 0.624,-0.09C0.594,-0.058 0.559,-0.033 0.518,-0.016C0.477,0.001 0.433,0.01 0.384,0.01C0.335,0.01 0.291,0.001 0.25,-0.016C0.209,-0.033 0.174,-0.058 0.144,-0.09C0.114,-0.122 0.091,-0.16 0.075,-0.204C0.058,-0.248 0.05,-0.297 0.05,-0.35C0.05,-0.403 0.058,-0.452 0.075,-0.496C0.091,-0.54 0.114,-0.578 0.144,-0.61C0.174,-0.642 0.209,-0.667 0.25,-0.684C0.291,-0.701 0.335,-0.71 0.384,-0.71C0.433,-0.71 0.477,-0.701 0.518,-0.684C0.559,-0.667 0.594,-0.642 0.624,-0.61C0.654,-0.578 0.677,-0.54 0.694,-0.496C0.71,-0.452 0.718,-0.403 0.718,-0.35ZM0.676,-0.35C0.676,-0.414 0.664,-0.47 0.639,-0.518C0.614,-0.566 0.579,-0.603 0.536,-0.63C0.492,-0.657 0.441,-0.67 0.384,-0.67C0.327,-0.67 0.277,-0.657 0.233,-0.63C0.189,-0.603 0.155,-0.566 0.13,-0.518C0.105,-0.47 0.092,-0.414 0.092,-0.35C0.092,-0.286 0.105,-0.23 0.13,-0.182C0.155,-0.134 0.189,-0.097 0.233,-0.07C0.277,-0.043 0.327,-0.03 0.384,-0.03C0.441,-0.03 0.492,-0.043 0.536,-0.07C0.579,-0.097 0.614,-0.134 0.639,-0.182C0.664,-0.23 0.676,-0.286 0.676,-0.35Z" style="fill-rule:nonzero;"/>
            </g>
            <g transform="matrix(1709.25,0,0,1709.25,3857.33,2105.88)">
                <path d="M0.12,-0C0.114,-0 0.109,-0.002 0.106,-0.006C0.102,-0.01 0.1,-0.015 0.1,-0.02L0.1,-0.68C0.1,-0.685 0.102,-0.69 0.106,-0.694C0.11,-0.698 0.115,-0.7 0.12,-0.7L0.497,-0.7C0.502,-0.7 0.507,-0.698 0.511,-0.694C0.515,-0.69 0.517,-0.685 0.517,-0.68C0.517,-0.674 0.515,-0.669 0.511,-0.666C0.507,-0.662 0.502,-0.66 0.497,-0.66L0.137,-0.66L0.14,-0.664L0.14,-0.376L0.136,-0.384L0.497,-0.384C0.502,-0.384 0.507,-0.382 0.511,-0.378C0.515,-0.374 0.517,-0.369 0.517,-0.364C0.517,-0.358 0.515,-0.353 0.511,-0.349C0.507,-0.346 0.502,-0.344 0.497,-0.344L0.134,-0.344L0.14,-0.352L0.14,-0.02C0.14,-0.015 0.138,-0.01 0.135,-0.006C0.131,-0.002 0.126,-0 0.12,-0Z" style="fill-rule:nonzero;"/>
            </g>
        </g>
    </g>
</svg>
